<svg xmlns="http://www.w3.org/2000/svg" width="48" height="48" viewBox="0 0 48 48"><circle cx="24" cy="24" r="23.5" style="fill:#0f1d8d"/><path d="M13.81,31.63V18m3.72,0V31.63M34.51,18V31.63m-3.72,0V18M36,18H9.64L24.16,6.75,38.68,18Zm2.45,13.67A1.36,1.36,0,0,1,39.8,33h0v.81H8.33V33A1.36,1.36,0,0,1,9.7,31.62H38.43Z" style="fill:none;stroke:#fff;stroke-linecap:round;stroke-linejoin:round"/><path d="M26.33,13.33a2.17,2.17,0,1,1-2.17-2.17A2.17,2.17,0,0,1,26.33,13.33Z" style="fill:none;stroke:#fff;stroke-linecap:round;stroke-linejoin:round"/><path d="M21.77,27a1.36,1.36,0,0,0,.63,1.16,2.73,2.73,0,0,0,1.65.45,2.6,2.6,0,0,0,1.55-.42,1.34,1.34,0,0,0,.59-1.13,1.41,1.41,0,0,0-.2-.77,1.64,1.64,0,0,0-.63-.54,5.05,5.05,0,0,0-1.19-.4,4.47,4.47,0,0,1-1.75-.71,1.25,1.25,0,0,1-.46-1,1.28,1.28,0,0,1,.57-1.07A2.44,2.44,0,0,1,24,22.15a2.61,2.61,0,0,1,1.58.46,1.47,1.47,0,0,1,.6,1.24" style="fill:none;stroke:#fff;stroke-linecap:round;stroke-linejoin:round"/><polyline points="23.98 30.11 23.98 29.61 23.98 28.67" style="fill:none;stroke:#fff;stroke-linecap:round;stroke-linejoin:round"/><polyline points="23.98 22.11 23.98 21.39 23.98 20.47" style="fill:none;stroke:#fff;stroke-linecap:round;stroke-linejoin:round"/></svg>